<?xml version="1.0" encoding="utf-8"?>
<!-- Generator: Adobe Illustrator 25.4.1, SVG Export Plug-In . SVG Version: 6.00 Build 0)  -->
<svg version="1.1" xmlns="http://www.w3.org/2000/svg" xmlns:xlink="http://www.w3.org/1999/xlink" x="0px" y="0px"
	 viewBox="0 0 100 100.9" style="enable-background:new 0 0 100 100.9;" xml:space="preserve">
<style type="text/css">
	.st0{fill:#FFFFFF;}
</style>
<g id="Layer_2">
</g>
<g id="Layer_1">
	<g>
		<path class="st0" d="M50,97.5c7.1,0,12.9-5.8,13-12.9H36.9C37,91.7,42.9,97.5,50,97.5z"/>
		<path class="st0" d="M86.8,67.7l-7.6-10.2V39.6c0-13.4-9.1-24.7-21.5-28.1V8.7c0-3.4-2.8-6.2-6.2-6.2h-3c-3.4,0-6.2,2.8-6.2,6.2
			v2.8C30,14.9,20.8,26.2,20.8,39.6v17.9l-7.6,10.2c-2.8,3.8-0.1,9.2,4.6,9.2h64.4C86.9,76.9,89.7,71.5,86.8,67.7z"/>
	</g>
</g>
</svg>
