<?xml version="1.0" encoding="utf-8"?>
<!-- Generator: Adobe Illustrator 25.4.1, SVG Export Plug-In . SVG Version: 6.00 Build 0)  -->
<svg version="1.1" id="Layer_1" xmlns:sketch="http://www.bohemiancoding.com/sketch/ns"
	 xmlns="http://www.w3.org/2000/svg" xmlns:xlink="http://www.w3.org/1999/xlink" x="0px" y="0px" viewBox="0 0 100 100"
	 style="enable-background:new 0 0 100 100;" xml:space="preserve">
<style type="text/css">
	.st0{fill-rule:evenodd;clip-rule:evenodd;fill:#FFFFFF;}
</style>
<desc>Created with Sketch.</desc>
<g sketch:type="MSPage">
	<path sketch:type="MSShapeGroup" class="st0" d="M83.3,78.4c-5-8-12.7-13.8-21.6-16.7c4.6-3.6,7.6-9.1,7.6-15.4
		c0-10.8-8.8-19.5-19.5-19.5c-10.8,0-19.5,8.8-19.5,19.5c0,6.3,3,11.8,7.6,15.4c-8.8,2.8-16.5,8.6-21.6,16.7
		C9.9,70.7,5.9,60.8,5.9,50c0-24.2,19.7-43.9,43.9-43.9S93.8,25.8,93.8,50C93.8,60.8,89.8,70.7,83.3,78.4 M36.4,46.4
		c0-7.4,6-13.4,13.4-13.4s13.4,6,13.4,13.4c0,7.4-6,13.4-13.4,13.4S36.4,53.8,36.4,46.4 M49.9,93.9c-11.2,0-21.4-4.2-29.2-11.2
		c0.1-0.1,0.2-0.1,0.3-0.3C27,72.3,38,65.9,49.9,65.9c11.8,0,22.9,6.4,28.9,16.6c0.1,0.1,0.2,0.2,0.2,0.3
		C71.2,89.7,61.1,93.9,49.9,93.9 M49.9,0c-27.6,0-50,22.4-50,50c0,27.6,22.4,50,50,50s50-22.4,50-50C99.9,22.4,77.4,0,49.9,0"/>
</g>
</svg>
