<?xml version="1.0" encoding="utf-8"?>
<!-- Generator: Adobe Illustrator 25.4.1, SVG Export Plug-In . SVG Version: 6.00 Build 0)  -->
<svg version="1.1" id="Layer_1" xmlns="http://www.w3.org/2000/svg" xmlns:xlink="http://www.w3.org/1999/xlink" x="0px" y="0px"
	 viewBox="0 0 22 20.8" style="enable-background:new 0 0 22 20.8;" xml:space="preserve">
<style type="text/css">
	.st0{fill-rule:evenodd;clip-rule:evenodd;fill:#FFFFFF;}
</style>
<desc>Created with Sketch.</desc>
<g>
	<g>
		<path class="st0" d="M15.5,14.1l5,5c0.4,0.4,0.4,1,0,1.4c-0.4,0.4-1,0.4-1.4,0l-5-5c-3.1,2.4-7.7,2.2-10.6-0.7
			c-3.1-3.1-3.1-8.2,0-11.3s8.2-3.1,11.3,0C17.7,6.4,17.9,10.9,15.5,14.1L15.5,14.1z M13.4,13.4c2.3-2.3,2.3-6.1,0-8.5
			s-6.1-2.3-8.5,0s-2.3,6.1,0,8.5S11.1,15.8,13.4,13.4z"/>
	</g>
</g>
</svg>
